<?xml version="1.0" standalone="no"?>
<!DOCTYPE svg PUBLIC "-//W3C//DTD SVG 20010904//EN"
 "http://www.w3.org/TR/2001/REC-SVG-20010904/DTD/svg10.dtd">
<svg version="1.0" xmlns="http://www.w3.org/2000/svg"
 width="700.000000pt" height="700.000000pt" viewBox="0 0 700.000000 700.000000"
 preserveAspectRatio="xMidYMid meet">
<metadata>
Created by potrace 1.14, written by Peter Selinger 2001-2017
</metadata>
<g transform="translate(0.000000,700.000000) scale(0.100000,-0.100000)"
fill="#000000" stroke="none">
<path d="M3728 6565 c-2 -2 -23 -7 -46 -10 -150 -18 -320 -175 -348 -320 -5
-22 -9 -43 -10 -47 -1 -5 -2 -33 -3 -64 -1 -49 -3 -55 -18 -49 -110 48 -193
59 -290 39 -189 -39 -326 -192 -347 -387 -2 -15 -6 -30 -9 -33 -3 -3 -81 -7
-174 -8 -179 -3 -212 -10 -300 -62 -296 -173 -278 -616 30 -763 91 -44 124
-48 348 -49 124 -1 214 -6 230 -13 34 -14 52 -56 53 -126 1 -61 -1 -64 -51
-69 -73 -7 -130 -34 -183 -87 -59 -59 -86 -112 -275 -532 -65 -143 -131 -289
-147 -325 -17 -36 -41 -88 -54 -117 -12 -28 -41 -89 -62 -135 -22 -45 -54
-114 -72 -153 -18 -38 -51 -108 -72 -155 -22 -47 -51 -110 -65 -140 -14 -30
-48 -102 -75 -160 -28 -58 -58 -123 -68 -145 -10 -22 -63 -137 -118 -256 -56
-119 -114 -245 -131 -280 -16 -35 -47 -102 -69 -149 -69 -148 -122 -261 -177
-380 -29 -63 -70 -151 -90 -195 -21 -44 -50 -107 -65 -140 -15 -33 -46 -100
-70 -150 -119 -252 -125 -269 -123 -351 4 -137 99 -260 233 -301 51 -15 244
-16 2375 -16 1276 0 2340 3 2365 6 177 27 302 205 269 384 -5 23 -49 131 -100
240 -50 109 -105 227 -121 263 -55 119 -150 324 -185 400 -20 41 -74 158 -120
260 -47 102 -110 236 -139 299 -30 62 -54 115 -54 117 0 1 -29 64 -65 139 -36
76 -65 139 -65 140 0 2 -23 52 -51 112 -28 59 -60 128 -71 153 -11 25 -37 81
-58 125 -21 44 -77 166 -125 270 -48 105 -112 241 -141 304 -30 62 -54 115
-54 117 0 4 -166 363 -239 518 -34 70 -61 131 -61 134 0 7 -68 89 -93 113 -42
39 -118 64 -208 68 -13 1 -15 13 -13 71 2 74 17 110 55 131 15 7 120 11 331
11 232 0 325 4 370 14 146 34 253 131 312 280 19 50 23 77 21 145 -2 100 -6
116 -46 197 -36 75 -96 137 -170 179 -79 45 -129 56 -269 59 -112 2 -125 4
-128 21 -23 162 -90 277 -205 350 -43 27 -182 75 -191 66 -2 -3 -14 -2 -25 2
-16 5 -21 15 -21 41 0 71 -61 205 -119 263 -71 70 -169 118 -258 127 -32 3
-63 7 -70 9 -6 2 -13 2 -15 0z"/>
</g>
</svg>
